<svg width="381" height="382" viewBox="0 0 381 382" fill="none" xmlns="http://www.w3.org/2000/svg">
<g opacity="0.1" filter="url(#filter0_f_0_497)">
<rect x="37.5477" y="281.566" width="163.984" height="88.1349" rx="5.34151" transform="rotate(-45 37.5477 281.566)" fill="#6D6B7C"/>
</g>
<rect x="6.10907" y="250.127" width="163.984" height="105.215" rx="5.34151" transform="rotate(-45 6.10907 250.127)" fill="white"/>
<path d="M50.1883 281.618L52.9001 275.944L55.6348 273.209L71.5869 289.162L68.442 292.306L55.8171 279.681L53.6521 283.533L50.1883 281.618ZM84.2738 276.475L73.6087 287.14L71.2614 284.793L71.1019 273.74C71.0259 271.233 70.5702 269.562 69.7346 268.726C69.1117 268.104 68.4128 267.8 67.638 267.815C66.8784 267.815 66.1947 268.119 65.587 268.726C64.3716 269.942 64.1058 271.454 64.7894 273.261L60.5963 274.355C60.0038 272.79 59.8823 271.256 60.2317 269.752C60.5811 268.218 61.3331 266.873 62.4878 265.718C63.931 264.275 65.625 263.493 67.5697 263.371C69.4991 263.234 71.231 263.933 72.7655 265.468C74.4215 267.124 75.2495 269.699 75.2495 273.193L75.2495 279.437L81.2429 273.444L84.2738 276.475ZM96.1524 264.596L85.4873 275.261L83.1401 272.914L82.9805 261.861C82.9046 259.355 82.4488 257.683 81.6132 256.848C80.9903 256.225 80.2915 255.921 79.5167 255.936C78.757 255.936 78.0734 256.24 77.4657 256.848C76.2503 258.063 75.9844 259.575 76.6681 261.383L72.4749 262.477C71.8824 260.912 71.7609 259.377 72.1103 257.873C72.4597 256.339 73.2118 254.994 74.3664 253.84C75.8097 252.396 77.5036 251.614 79.4483 251.492C81.3777 251.356 83.1097 252.055 84.6441 253.589C86.3001 255.245 87.1281 257.82 87.1281 261.314L87.1281 267.559L93.1215 261.565L96.1524 264.596ZM95.634 258.825L98.8244 255.634L103.451 263.679L101.058 266.072L95.634 258.825ZM96.9402 231.904L98.581 240.609C100.283 238.999 102.166 238.194 104.233 238.194C106.299 238.194 108.122 238.984 109.702 240.564C111.328 242.189 112.125 244.066 112.095 246.192C112.049 248.304 111.176 250.211 109.474 251.912C107.772 253.614 105.866 254.488 103.754 254.533C101.673 254.579 99.804 253.774 98.148 252.118C96.9478 250.917 96.1882 249.535 95.8692 247.97L93.3396 235.505L96.9402 231.904ZM106.58 243.686C105.82 242.926 104.954 242.561 103.982 242.592C102.994 242.607 102.113 243.002 101.338 243.777C100.564 244.552 100.161 245.425 100.131 246.398C100.115 247.355 100.495 248.221 101.27 248.996C102.045 249.77 102.918 250.158 103.891 250.158C104.863 250.127 105.737 249.725 106.512 248.95C107.286 248.175 107.689 247.302 107.719 246.329C107.735 245.342 107.355 244.461 106.58 243.686ZM112.687 221.353L113.575 228.213C115.003 227.423 116.447 227.104 117.905 227.256C119.379 227.392 120.67 228.015 121.779 229.124C123.42 230.765 124.149 232.604 123.967 234.639C123.815 236.645 122.934 238.453 121.323 240.063C120.063 241.324 118.657 242.152 117.108 242.547C115.543 242.927 114.001 242.798 112.481 242.16L113.621 237.921C115.231 238.772 116.773 238.46 118.247 236.987C119.052 236.181 119.485 235.369 119.546 234.548C119.607 233.697 119.303 232.938 118.634 232.269C117.981 231.616 117.229 231.32 116.378 231.381C115.543 231.426 114.722 231.851 113.917 232.657L113.233 233.34L110.203 232.725L109.245 225.478L103.001 231.722L100.062 228.783L110.089 218.756L112.687 221.353ZM114.553 220.307L111.545 217.299L121.846 206.998L124.512 209.665L132.397 228.351L129.07 231.679L121.367 213.493L114.553 220.307Z" fill="black"/>
<path d="M75.7954 303.376L74.4583 304.713L75.3467 305.601L76.6384 304.309L77.137 304.808L75.8453 306.1L77.1325 307.387L76.6112 307.908L73.4385 304.735L75.2968 302.877L75.7954 303.376ZM77.5747 303.174C77.4176 302.769 77.5098 302.396 77.8512 302.054L78.3815 302.585C78.1821 302.76 78.0642 302.968 78.028 303.21C77.9887 303.449 78.0854 303.684 78.3181 303.917L79.4602 305.059L78.9707 305.549L76.7045 303.282L77.194 302.793L77.5747 303.174ZM81.5876 303.05C81.2552 303.382 80.8578 303.55 80.3955 303.553C79.9332 303.556 79.5344 303.39 79.199 303.054C78.8636 302.719 78.6974 302.32 78.7004 301.858C78.7034 301.395 78.8711 300.998 79.2035 300.666C79.5389 300.33 79.9362 300.163 80.3955 300.163C80.8578 300.16 81.2567 300.326 81.5921 300.661C81.9275 300.997 82.0937 301.395 82.0907 301.858C82.0907 302.317 81.923 302.714 81.5876 303.05ZM80.4046 302.873C80.6765 302.873 80.9122 302.773 81.1117 302.574C81.3111 302.374 81.4108 302.139 81.4108 301.867C81.4108 301.595 81.3081 301.356 81.1026 301.151C80.8971 300.945 80.6584 300.842 80.3865 300.842C80.1145 300.842 79.8788 300.942 79.6794 301.142C79.48 301.341 79.3803 301.577 79.3803 301.849C79.3803 302.121 79.483 302.359 79.6885 302.565C79.8939 302.77 80.1326 302.873 80.4046 302.873ZM83.3627 296.506C83.6195 296.25 83.9096 296.126 84.2329 296.135C84.5562 296.144 84.8584 296.289 85.1394 296.57L86.5445 297.975L86.055 298.464L84.6816 297.091C84.5245 296.934 84.3644 296.852 84.2012 296.846C84.035 296.837 83.8839 296.901 83.748 297.037C83.5969 297.188 83.5259 297.359 83.5349 297.549C83.547 297.736 83.6528 297.93 83.8522 298.129L85.1213 299.398L84.6318 299.888L83.2585 298.514C83.1013 298.357 82.9427 298.274 82.7826 298.265C82.6224 298.25 82.4744 298.31 82.3384 298.446C82.1903 298.594 82.1208 298.767 82.1299 298.963C82.1359 299.156 82.2372 299.351 82.4336 299.548L83.7026 300.817L83.2131 301.306L80.9469 299.04L81.4364 298.551L81.7084 298.823C81.6328 298.457 81.7386 298.131 82.0256 297.844C82.3157 297.553 82.6496 297.458 83.0273 297.558C82.9397 297.168 83.0515 296.818 83.3627 296.506ZM88.2921 296.227L84.9834 292.919L85.4729 292.429L88.7816 295.738L88.2921 296.227ZM88.9239 291.063L89.4134 290.574L91.6796 292.84L91.1901 293.329L90.8638 293.003C90.9363 293.444 90.8003 293.837 90.4559 294.181C90.1447 294.493 89.7639 294.644 89.3137 294.635C88.8605 294.623 88.4677 294.45 88.1353 294.118C87.7999 293.783 87.6276 293.39 87.6186 292.94C87.6095 292.489 87.7606 292.109 88.0718 291.797C88.4163 291.453 88.8076 291.315 89.2457 291.385L88.9239 291.063ZM89.35 293.946C89.6219 293.946 89.8606 293.843 90.0661 293.637C90.2716 293.432 90.3743 293.193 90.3743 292.921C90.3713 292.646 90.2655 292.405 90.057 292.196C89.8485 291.988 89.6083 291.883 89.3364 291.883C89.0614 291.88 88.8212 291.982 88.6157 292.187C88.4102 292.393 88.309 292.633 88.312 292.908C88.312 293.18 88.4163 293.42 88.6248 293.628C88.8333 293.837 89.075 293.943 89.35 293.946ZM91.0811 290.157C91.1567 290.232 91.2579 290.252 91.3848 290.216C91.5117 290.173 91.6507 290.11 91.8018 290.025C91.9529 289.935 92.11 289.85 92.2732 289.772C92.4363 289.693 92.6101 289.664 92.7944 289.685C92.9787 289.701 93.1479 289.785 93.302 289.939C93.5196 290.157 93.6057 290.412 93.5604 290.705C93.5181 290.995 93.37 291.267 93.1162 291.521C92.8926 291.745 92.6539 291.89 92.4001 291.956C92.1463 292.023 91.9 292.009 91.6613 291.915L91.8381 291.249C92.1342 291.388 92.4107 291.329 92.6675 291.072C92.9243 290.816 92.9681 290.602 92.7989 290.433C92.7264 290.361 92.6252 290.344 92.4953 290.383C92.3683 290.42 92.2294 290.483 92.0783 290.574C91.9272 290.658 91.7701 290.74 91.6069 290.819C91.4437 290.897 91.2715 290.93 91.0902 290.918C90.9089 290.9 90.7427 290.816 90.5916 290.664C90.3831 290.456 90.294 290.21 90.3242 289.926C90.3575 289.639 90.4919 289.377 90.7276 289.142C90.915 288.954 91.1234 288.83 91.3531 288.77C91.5827 288.703 91.8109 288.705 92.0375 288.774L91.8562 289.418C91.6054 289.324 91.3773 289.38 91.1718 289.586C91.0781 289.679 91.0207 289.779 90.9996 289.885C90.9754 289.988 91.0026 290.078 91.0811 290.157ZM93.7979 287.132L93.2359 287.694L94.3237 288.782C94.4173 288.875 94.5065 288.922 94.5911 288.922C94.6727 288.919 94.7573 288.88 94.8449 288.804C94.9325 288.723 95.0353 288.617 95.1531 288.487L95.5927 288.927C95.2634 289.347 94.9627 289.584 94.6908 289.638C94.4158 289.69 94.1303 289.567 93.8342 289.271L92.7464 288.183L92.3294 288.6L91.858 288.129L92.275 287.712L91.7855 287.222L92.13 286.588L92.7645 287.222L93.3265 286.66L93.7979 287.132ZM93.8923 284.282L95.9093 282.265L96.3625 282.718L97.967 286.552L97.4186 287.101L95.8413 283.33L94.3909 284.78L93.8923 284.282ZM99.3504 278.824L99.8399 278.334L103.013 281.507L102.523 281.996L102.197 281.67C102.269 282.111 102.133 282.504 101.789 282.848C101.478 283.16 101.097 283.311 100.647 283.302C100.193 283.29 99.8007 283.117 99.4683 282.785C99.1329 282.45 98.9606 282.057 98.9516 281.607C98.9425 281.156 99.0936 280.776 99.4048 280.464C99.7493 280.12 100.141 279.982 100.579 280.052L99.3504 278.824ZM100.683 282.613C100.955 282.613 101.194 282.51 101.399 282.304C101.605 282.099 101.707 281.86 101.707 281.588C101.704 281.313 101.599 281.072 101.39 280.863C101.182 280.655 100.941 280.55 100.669 280.55C100.394 280.547 100.154 280.649 99.9487 280.854C99.7432 281.06 99.642 281.3 99.645 281.575C99.645 281.847 99.7493 282.087 99.9578 282.295C100.166 282.504 100.408 282.61 100.683 282.613ZM103.157 276.83L103.647 276.34L105.913 278.607L105.423 279.096L105.097 278.77C105.17 279.211 105.034 279.604 104.689 279.948C104.378 280.259 103.997 280.41 103.547 280.401C103.094 280.389 102.701 280.217 102.369 279.885C102.033 279.549 101.861 279.156 101.852 278.706C101.843 278.256 101.994 277.875 102.305 277.564C102.65 277.22 103.041 277.082 103.479 277.152L103.157 276.83ZM103.583 279.712C103.855 279.712 104.094 279.61 104.299 279.404C104.505 279.199 104.608 278.96 104.608 278.688C104.604 278.413 104.499 278.171 104.29 277.963C104.082 277.754 103.842 277.65 103.57 277.65C103.295 277.647 103.054 277.748 102.849 277.954C102.643 278.159 102.542 278.4 102.545 278.675C102.545 278.946 102.65 279.187 102.858 279.395C103.066 279.604 103.308 279.709 103.583 279.712ZM105.79 274.197L106.311 273.676L107.78 276.885C108.148 277.689 108.058 278.335 107.508 278.825L107.05 278.367C107.213 278.222 107.304 278.065 107.322 277.896C107.343 277.729 107.305 277.537 107.209 277.32L107.186 277.252L104 275.987L104.534 275.453L106.855 276.422L105.79 274.197ZM107.59 273.647C107.666 273.723 107.767 273.743 107.894 273.706C108.021 273.664 108.16 273.601 108.311 273.516C108.462 273.425 108.619 273.341 108.783 273.262C108.946 273.184 109.119 273.155 109.304 273.176C109.488 273.191 109.657 273.276 109.811 273.43C110.029 273.647 110.115 273.903 110.07 274.196C110.027 274.486 109.879 274.758 109.626 275.012C109.402 275.235 109.163 275.38 108.909 275.447C108.656 275.513 108.409 275.5 108.171 275.406L108.347 274.74C108.644 274.879 108.92 274.82 109.177 274.563C109.434 274.306 109.477 274.093 109.308 273.924C109.236 273.851 109.135 273.835 109.005 273.874C108.878 273.91 108.739 273.974 108.588 274.064C108.437 274.149 108.279 274.231 108.116 274.309C107.953 274.388 107.781 274.421 107.6 274.409C107.418 274.391 107.252 274.306 107.101 274.155C106.892 273.947 106.803 273.7 106.834 273.416C106.867 273.129 107.001 272.868 107.237 272.632C107.424 272.445 107.633 272.321 107.862 272.261C108.092 272.194 108.32 272.196 108.547 272.265L108.366 272.909C108.115 272.815 107.887 272.871 107.681 273.076C107.587 273.17 107.53 273.27 107.509 273.376C107.485 273.478 107.512 273.569 107.59 273.647Z" fill="#8896A6"/>
<rect opacity="0.2" x="17.8181" y="250.505" width="21.366" height="21.366" rx="1.60245" transform="rotate(-45 17.8181 250.505)" fill="#4F46BA"/>
<path d="M52.3221 235.527L49.8867 234.881L49.0648 235.702L50.6059 237.244L49.9109 237.938L45.6806 233.708L47.3727 232.016C47.7514 231.637 48.2047 231.45 48.7325 231.454C49.2602 231.45 49.7135 231.637 50.0922 232.016C50.3621 232.286 50.5313 232.612 50.5998 232.995C50.6683 233.37 50.628 233.732 50.479 234.083L53.0836 234.766L52.3221 235.527ZM47.0283 233.666L48.4424 235.08L49.4395 234.083C49.6248 233.898 49.7135 233.672 49.7054 233.406C49.6974 233.14 49.5946 232.909 49.3972 232.711C49.1998 232.514 48.9681 232.411 48.7022 232.403C48.4363 232.395 48.2107 232.483 48.0254 232.669L47.0283 233.666ZM52.7567 232.627C53.0347 232.808 53.3228 232.875 53.6209 232.826C53.915 232.774 54.187 232.623 54.4367 232.373C54.7832 232.027 54.9182 231.642 54.8416 231.219L55.6937 230.995C55.8348 231.733 55.6132 232.393 55.029 232.978C54.5375 233.469 53.9916 233.717 53.3913 233.721C52.7869 233.721 52.2551 233.491 51.7959 233.032C51.3446 232.581 51.117 232.055 51.113 231.455C51.1049 230.85 51.3346 230.314 51.8019 229.847C52.2451 229.404 52.7628 229.196 53.355 229.225C53.9513 229.249 54.471 229.483 54.9142 229.926C54.9827 229.994 55.0652 230.093 55.1619 230.222L52.7567 232.627ZM52.2189 232.101L53.9956 230.325C53.7055 230.123 53.4175 230.041 53.1314 230.077C52.8494 230.109 52.6016 230.232 52.3881 230.445C52.1464 230.687 52.0114 230.955 51.9832 231.249C51.955 231.543 52.0336 231.827 52.2189 232.101ZM56.4075 225.399L57.0601 224.746L60.0817 227.768L59.4291 228.42L58.994 227.985C59.0907 228.573 58.9094 229.097 58.4501 229.556C58.0351 229.971 57.5275 230.173 56.9272 230.161C56.3229 230.145 55.7991 229.915 55.3559 229.472C54.9087 229.025 54.6791 228.501 54.667 227.901C54.6549 227.3 54.8564 226.793 55.2713 226.378C55.7306 225.918 56.2523 225.735 56.8365 225.828L56.4075 225.399ZM56.9755 229.242C57.3381 229.242 57.6564 229.105 57.9304 228.831C58.2043 228.557 58.3413 228.239 58.3413 227.876C58.3373 227.51 58.1963 227.187 57.9183 226.91C57.6403 226.632 57.32 226.493 56.9574 226.493C56.5908 226.488 56.2705 226.623 55.9965 226.897C55.7226 227.171 55.5876 227.492 55.5916 227.858C55.5916 228.221 55.7306 228.541 56.0086 228.819C56.2866 229.097 56.6089 229.238 56.9755 229.242ZM62.4077 225.599C61.9524 226.054 61.4186 226.282 60.8062 226.282C60.1979 226.278 59.6701 226.052 59.2229 225.605C58.7717 225.154 58.5461 224.626 58.5461 224.022C58.5461 223.409 58.7737 222.875 59.2289 222.42C59.523 222.126 59.8615 221.929 60.2442 221.828C60.6269 221.727 60.9976 221.735 61.3562 221.852L61.1205 222.74C60.9069 222.664 60.6894 222.656 60.4678 222.716C60.2462 222.769 60.0448 222.885 59.8635 223.067C59.5976 223.333 59.4646 223.647 59.4646 224.009C59.4687 224.368 59.6056 224.682 59.8756 224.952C60.1455 225.222 60.4597 225.359 60.8183 225.363C61.1809 225.363 61.4951 225.23 61.7611 224.964C61.9383 224.787 62.0552 224.586 62.1116 224.36C62.172 224.13 62.168 223.909 62.0995 223.695L62.9818 223.453C63.0946 223.824 63.1006 224.201 62.9999 224.584C62.8992 224.966 62.7018 225.305 62.4077 225.599ZM62.7102 218.939C63.0567 218.592 63.4475 218.423 63.8826 218.431C64.3177 218.439 64.7287 218.637 65.1154 219.023L66.9707 220.879L66.318 221.531L64.5292 219.743C64.3036 219.517 64.0699 219.404 63.8282 219.404C63.5865 219.404 63.3609 219.509 63.1514 219.718C62.9217 219.948 62.8089 220.206 62.813 220.492C62.813 220.774 62.96 221.062 63.2541 221.356L64.8737 222.976L64.221 223.628L59.9908 219.398L60.6434 218.745L62.2388 220.341C62.126 219.833 62.2832 219.366 62.7102 218.939Z" fill="#8896A6"/>
<rect opacity="0.2" x="98.2683" y="174.586" width="38.4589" height="16.0245" rx="1.60245" transform="rotate(-45 98.2683 174.586)" fill="#2FE6C8"/>
<path d="M117.052 169.672L116.644 169.264L116.622 167.029C116.622 166.491 116.523 166.124 116.327 165.928C116.173 165.774 116.007 165.701 115.828 165.71C115.65 165.713 115.49 165.786 115.348 165.928C115.082 166.194 115.017 166.522 115.153 166.911L114.455 167.093C114.343 166.781 114.324 166.481 114.396 166.191C114.469 165.901 114.615 165.645 114.836 165.425C115.114 165.147 115.44 164.996 115.815 164.972C116.19 164.947 116.528 165.086 116.83 165.388C117.153 165.712 117.318 166.236 117.324 166.961L117.324 168.393L118.639 167.079L119.142 167.582L117.052 169.672ZM116.896 163.482L117.349 163.029L120.522 166.202L120.001 166.723L117.385 164.108L116.928 164.928L116.357 164.611L116.896 163.482ZM121.547 165.087C121.547 165.22 121.5 165.333 121.406 165.427C121.312 165.52 121.199 165.567 121.066 165.567C120.933 165.567 120.82 165.52 120.726 165.427C120.633 165.333 120.584 165.221 120.581 165.091C120.581 164.958 120.629 164.843 120.726 164.747C120.82 164.653 120.933 164.606 121.066 164.606C121.199 164.606 121.312 164.653 121.406 164.747C121.5 164.84 121.547 164.954 121.547 165.087ZM123.332 161.28L123.817 161.765L123.454 162.127L124.025 162.699L123.499 163.224L122.928 162.653L121.369 164.212L120.884 163.727L119.86 160.518L120.427 159.952L121.451 163.161L122.443 162.168L121.619 161.343L122.144 160.818L122.969 161.643L123.332 161.28ZM123.655 159.09C123.655 159.368 123.549 159.612 123.338 159.824C123.126 160.035 122.88 160.143 122.599 160.146C122.315 160.146 122.072 160.044 121.869 159.842C121.667 159.639 121.567 159.398 121.57 159.117C121.57 158.833 121.676 158.585 121.887 158.373C122.099 158.162 122.343 158.056 122.621 158.056C122.902 158.053 123.146 158.154 123.351 158.36C123.554 158.562 123.655 158.805 123.655 159.09ZM122.934 159.429C123.031 159.333 123.078 159.222 123.075 159.099C123.072 158.975 123.025 158.867 122.934 158.777C122.841 158.683 122.732 158.635 122.608 158.632C122.484 158.629 122.374 158.676 122.277 158.772C122.183 158.866 122.138 158.975 122.141 159.099C122.144 159.222 122.192 159.331 122.286 159.425C122.377 159.516 122.484 159.562 122.608 159.565C122.732 159.568 122.841 159.523 122.934 159.429ZM124.176 161.614L123.94 157.2L124.326 157.095L124.566 161.514L124.176 161.614ZM126.624 160.209C126.412 160.421 126.166 160.528 125.885 160.531C125.601 160.531 125.358 160.43 125.155 160.227C124.953 160.025 124.853 159.783 124.856 159.502C124.856 159.218 124.962 158.97 125.173 158.759C125.382 158.55 125.628 158.446 125.912 158.446C126.193 158.443 126.435 158.543 126.637 158.745C126.84 158.948 126.941 159.191 126.941 159.475C126.938 159.756 126.832 160.001 126.624 160.209ZM126.22 159.815C126.317 159.718 126.364 159.608 126.361 159.484C126.358 159.36 126.311 159.253 126.22 159.162C126.127 159.068 126.018 159.02 125.894 159.017C125.77 159.014 125.66 159.061 125.563 159.158C125.469 159.251 125.424 159.36 125.427 159.484C125.43 159.608 125.478 159.717 125.572 159.81C125.663 159.901 125.77 159.948 125.894 159.951C126.018 159.954 126.127 159.908 126.22 159.815Z" fill="#2FE6C8"/>
<path d="M107.95 172.836C107.844 172.439 108.207 172.076 108.604 172.182L112.179 173.14C112.576 173.246 112.709 173.743 112.418 174.033L109.802 176.65C109.511 176.941 109.014 176.808 108.908 176.411L107.95 172.836Z" fill="#2FE6C8"/>
<g opacity="0.1" filter="url(#filter1_f_0_497)">
<rect x="164.896" y="154.218" width="163.984" height="88.1349" rx="5.34151" transform="rotate(-45 164.896 154.218)" fill="#6D6B7C"/>
</g>
<rect x="133.458" y="122.779" width="163.984" height="105.215" rx="5.34151" transform="rotate(-45 133.458 122.779)" fill="white"/>
<path d="M177.537 154.27L180.249 148.596L182.984 145.861L198.936 161.813L195.791 164.958L183.166 152.333L181.001 156.185L177.537 154.27ZM211.623 149.126L200.957 159.792L198.61 157.444L198.451 146.392C198.375 143.885 197.919 142.214 197.083 141.378C196.46 140.755 195.762 140.452 194.987 140.467C194.227 140.467 193.544 140.771 192.936 141.378C191.72 142.594 191.455 144.105 192.138 145.913L187.945 147.007C187.353 145.442 187.231 143.908 187.58 142.404C187.93 140.869 188.682 139.525 189.837 138.37C191.28 136.927 192.974 136.145 194.918 136.023C196.848 135.886 198.58 136.585 200.114 138.12C201.77 139.776 202.598 142.351 202.598 145.845L202.598 152.089L208.592 146.096L211.623 149.126ZM223.501 137.248L212.836 147.913L210.489 145.566L210.329 134.513C210.253 132.006 209.798 130.335 208.962 129.5C208.339 128.877 207.64 128.573 206.865 128.588C206.106 128.588 205.422 128.892 204.814 129.5C203.599 130.715 203.333 132.227 204.017 134.035L199.824 135.129C199.231 133.564 199.11 132.029 199.459 130.525C199.809 128.991 200.561 127.646 201.715 126.492C203.158 125.048 204.852 124.266 206.797 124.144C208.727 124.008 210.458 124.706 211.993 126.241C213.649 127.897 214.477 130.472 214.477 133.966L214.477 140.21L220.47 134.217L223.501 137.248ZM222.983 131.477L226.173 128.286L230.799 136.331L228.406 138.723L222.983 131.477ZM224.289 104.556L225.93 113.261C227.631 111.651 229.515 110.846 231.581 110.846C233.648 110.846 235.471 111.636 237.051 113.216C238.676 114.841 239.474 116.717 239.444 118.844C239.398 120.956 238.524 122.863 236.823 124.564C235.121 126.266 233.215 127.139 231.103 127.185C229.021 127.231 227.153 126.425 225.497 124.769C224.297 123.569 223.537 122.187 223.218 120.622L220.688 108.156L224.289 104.556ZM233.929 116.338C233.169 115.578 232.303 115.213 231.331 115.244C230.343 115.259 229.462 115.654 228.687 116.429C227.912 117.204 227.51 118.077 227.479 119.049C227.464 120.007 227.844 120.873 228.619 121.647C229.394 122.422 230.267 122.81 231.24 122.81C232.212 122.779 233.085 122.377 233.86 121.602C234.635 120.827 235.038 119.953 235.068 118.981C235.083 117.994 234.703 117.112 233.929 116.338ZM240.035 94.0053L240.924 100.865C242.352 100.075 243.795 99.7557 245.254 99.9076C246.728 100.044 248.019 100.667 249.128 101.776C250.769 103.417 251.498 105.255 251.316 107.291C251.164 109.297 250.283 111.104 248.672 112.715C247.411 113.976 246.006 114.804 244.456 115.199C242.892 115.579 241.349 115.45 239.83 114.811L240.97 110.573C242.58 111.424 244.122 111.112 245.596 109.638C246.401 108.833 246.834 108.02 246.895 107.2C246.956 106.349 246.652 105.59 245.983 104.921C245.33 104.268 244.578 103.972 243.727 104.032C242.892 104.078 242.071 104.503 241.266 105.309L240.582 105.992L237.551 105.377L236.594 98.1301L230.35 104.374L227.41 101.434L237.437 91.4074L240.035 94.0053ZM241.902 92.9588L238.894 89.9507L249.195 79.6502L251.861 82.3165L259.746 101.003L256.419 104.33L248.716 86.145L241.902 92.9588Z" fill="black"/>
<path d="M203.144 176.028L201.807 177.365L202.695 178.253L203.987 176.961L204.486 177.46L203.194 178.752L204.481 180.039L203.96 180.56L200.787 177.387L202.646 175.529L203.144 176.028ZM204.924 175.826C204.766 175.421 204.859 175.048 205.2 174.706L205.73 175.236C205.531 175.412 205.413 175.62 205.377 175.862C205.337 176.101 205.434 176.336 205.667 176.569L206.809 177.711L206.32 178.201L204.053 175.934L204.543 175.445L204.924 175.826ZM208.936 175.702C208.604 176.034 208.207 176.202 207.744 176.205C207.282 176.208 206.883 176.042 206.548 175.706C206.212 175.371 206.046 174.972 206.049 174.51C206.052 174.047 206.22 173.65 206.552 173.318C206.888 172.982 207.285 172.814 207.744 172.814C208.207 172.811 208.605 172.978 208.941 173.313C209.276 173.648 209.442 174.047 209.439 174.51C209.439 174.969 209.272 175.366 208.936 175.702ZM207.753 175.525C208.025 175.525 208.261 175.425 208.46 175.226C208.66 175.026 208.76 174.791 208.76 174.519C208.76 174.247 208.657 174.008 208.451 173.802C208.246 173.597 208.007 173.494 207.735 173.494C207.463 173.494 207.228 173.594 207.028 173.793C206.829 173.993 206.729 174.229 206.729 174.5C206.729 174.772 206.832 175.011 207.037 175.217C207.243 175.422 207.481 175.525 207.753 175.525ZM210.711 169.158C210.968 168.901 211.258 168.778 211.582 168.787C211.905 168.796 212.207 168.941 212.488 169.222L213.893 170.627L213.404 171.116L212.03 169.743C211.873 169.586 211.713 169.504 211.55 169.498C211.384 169.489 211.233 169.553 211.097 169.689C210.946 169.84 210.875 170.01 210.884 170.201C210.896 170.388 211.002 170.581 211.201 170.781L212.47 172.05L211.981 172.539L210.607 171.166C210.45 171.009 210.291 170.926 210.131 170.917C209.971 170.902 209.823 170.962 209.687 171.098C209.539 171.246 209.47 171.418 209.479 171.615C209.485 171.808 209.586 172.003 209.782 172.2L211.051 173.469L210.562 173.958L208.296 171.692L208.785 171.202L209.057 171.474C208.982 171.109 209.087 170.782 209.374 170.495C209.665 170.205 209.998 170.11 210.376 170.21C210.288 169.82 210.4 169.47 210.711 169.158ZM215.641 168.879L212.332 165.571L212.822 165.081L216.13 168.39L215.641 168.879ZM216.273 163.715L216.762 163.225L219.028 165.492L218.539 165.981L218.213 165.655C218.285 166.096 218.149 166.489 217.805 166.833C217.493 167.144 217.113 167.296 216.662 167.286C216.209 167.274 215.816 167.102 215.484 166.77C215.149 166.434 214.976 166.042 214.967 165.591C214.958 165.141 215.109 164.76 215.421 164.449C215.765 164.105 216.156 163.967 216.595 164.037L216.273 163.715ZM216.699 166.598C216.971 166.598 217.209 166.495 217.415 166.289C217.62 166.084 217.723 165.845 217.723 165.573C217.72 165.298 217.614 165.057 217.406 164.848C217.197 164.64 216.957 164.535 216.685 164.535C216.41 164.532 216.17 164.634 215.965 164.839C215.759 165.044 215.658 165.285 215.661 165.56C215.661 165.832 215.765 166.072 215.974 166.28C216.182 166.489 216.424 166.595 216.699 166.598ZM218.43 162.809C218.505 162.884 218.607 162.904 218.734 162.868C218.861 162.825 219 162.762 219.151 162.677C219.302 162.587 219.459 162.502 219.622 162.423C219.785 162.345 219.959 162.316 220.143 162.337C220.328 162.352 220.497 162.437 220.651 162.591C220.868 162.809 220.954 163.064 220.909 163.357C220.867 163.647 220.719 163.919 220.465 164.173C220.241 164.397 220.003 164.542 219.749 164.608C219.495 164.675 219.249 164.661 219.01 164.567L219.187 163.901C219.483 164.04 219.759 163.981 220.016 163.724C220.273 163.467 220.317 163.254 220.148 163.085C220.075 163.013 219.974 162.996 219.844 163.035C219.717 163.072 219.578 163.135 219.427 163.226C219.276 163.31 219.119 163.392 218.956 163.47C218.793 163.549 218.62 163.582 218.439 163.57C218.258 163.552 218.092 163.467 217.94 163.316C217.732 163.108 217.643 162.862 217.673 162.578C217.706 162.29 217.841 162.029 218.076 161.793C218.264 161.606 218.472 161.482 218.702 161.422C218.932 161.355 219.16 161.357 219.386 161.426L219.205 162.07C218.954 161.976 218.726 162.032 218.521 162.238C218.427 162.331 218.369 162.431 218.348 162.537C218.324 162.639 218.351 162.73 218.43 162.809ZM221.147 159.784L220.585 160.346L221.672 161.433C221.766 161.527 221.855 161.574 221.94 161.574C222.021 161.571 222.106 161.532 222.194 161.456C222.281 161.375 222.384 161.269 222.502 161.139L222.942 161.579C222.612 161.999 222.312 162.236 222.04 162.29C221.765 162.341 221.479 162.219 221.183 161.923L220.095 160.835L219.678 161.252L219.207 160.781L219.624 160.364L219.134 159.874L219.479 159.24L220.113 159.874L220.675 159.312L221.147 159.784ZM221.241 156.934L223.258 154.917L223.711 155.37L225.316 159.204L224.767 159.753L223.19 155.982L221.74 157.432L221.241 156.934ZM226.699 151.475L227.189 150.986L230.361 154.159L229.872 154.648L229.546 154.322C229.618 154.763 229.482 155.156 229.138 155.5C228.826 155.811 228.446 155.963 227.995 155.953C227.542 155.941 227.149 155.769 226.817 155.437C226.482 155.101 226.309 154.709 226.3 154.258C226.291 153.808 226.442 153.427 226.754 153.116C227.098 152.772 227.489 152.634 227.928 152.704L226.699 151.475ZM228.032 155.265C228.304 155.265 228.542 155.162 228.748 154.956C228.953 154.751 229.056 154.512 229.056 154.24C229.053 153.965 228.947 153.724 228.739 153.515C228.53 153.307 228.29 153.202 228.018 153.202C227.743 153.199 227.503 153.301 227.298 153.506C227.092 153.711 226.991 153.952 226.994 154.227C226.994 154.499 227.098 154.739 227.307 154.947C227.515 155.156 227.757 155.262 228.032 155.265ZM230.506 149.482L230.995 148.992L233.262 151.258L232.772 151.748L232.446 151.422C232.518 151.863 232.382 152.256 232.038 152.6C231.727 152.911 231.346 153.062 230.896 153.053C230.442 153.041 230.05 152.869 229.717 152.537C229.382 152.201 229.21 151.808 229.201 151.358C229.192 150.908 229.343 150.527 229.654 150.216C229.998 149.871 230.39 149.734 230.828 149.804L230.506 149.482ZM230.932 152.364C231.204 152.364 231.443 152.262 231.648 152.056C231.854 151.851 231.956 151.612 231.956 151.34C231.953 151.065 231.848 150.823 231.639 150.615C231.431 150.406 231.19 150.302 230.918 150.302C230.643 150.299 230.403 150.4 230.198 150.606C229.992 150.811 229.891 151.051 229.894 151.326C229.894 151.598 229.998 151.839 230.207 152.047C230.415 152.256 230.657 152.361 230.932 152.364ZM233.139 146.849L233.66 146.328L235.128 149.537C235.497 150.34 235.406 150.987 234.857 151.477L234.399 151.019C234.562 150.874 234.653 150.717 234.671 150.547C234.692 150.381 234.654 150.189 234.557 149.972L234.535 149.904L231.348 148.639L231.883 148.104L234.204 149.074L233.139 146.849ZM234.939 146.299C235.015 146.375 235.116 146.394 235.243 146.358C235.37 146.316 235.509 146.252 235.66 146.168C235.811 146.077 235.968 145.993 236.131 145.914C236.294 145.835 236.468 145.807 236.653 145.828C236.837 145.843 237.006 145.928 237.16 146.082C237.378 146.299 237.464 146.555 237.419 146.848C237.376 147.138 237.228 147.41 236.974 147.664C236.751 147.887 236.512 148.032 236.258 148.099C236.004 148.165 235.758 148.152 235.519 148.058L235.696 147.392C235.992 147.531 236.269 147.472 236.526 147.215C236.782 146.958 236.826 146.745 236.657 146.576C236.585 146.503 236.483 146.487 236.353 146.526C236.226 146.562 236.087 146.626 235.936 146.716C235.785 146.801 235.628 146.882 235.465 146.961C235.302 147.04 235.13 147.073 234.948 147.061C234.767 147.043 234.601 146.958 234.45 146.807C234.241 146.598 234.152 146.352 234.182 146.068C234.216 145.781 234.35 145.52 234.586 145.284C234.773 145.097 234.982 144.973 235.211 144.912C235.441 144.846 235.669 144.847 235.896 144.917L235.714 145.561C235.464 145.467 235.235 145.523 235.03 145.728C234.936 145.822 234.879 145.922 234.858 146.027C234.834 146.13 234.861 146.221 234.939 146.299Z" fill="#8896A6"/>
<rect opacity="0.2" x="145.167" y="123.157" width="21.366" height="21.366" rx="1.60245" transform="rotate(-45 145.167 123.157)" fill="#4F46BA"/>
<path d="M179.671 108.179L177.235 107.532L176.414 108.354L177.955 109.895L177.26 110.59L173.029 106.36L174.721 104.668C175.1 104.289 175.553 104.102 176.081 104.106C176.609 104.102 177.062 104.289 177.441 104.668C177.711 104.938 177.88 105.264 177.949 105.647C178.017 106.021 177.977 106.384 177.828 106.735L180.432 107.417L179.671 108.179ZM174.377 106.318L175.791 107.732L176.788 106.735C176.974 106.549 177.062 106.324 177.054 106.058C177.046 105.792 176.943 105.56 176.746 105.363C176.549 105.165 176.317 105.063 176.051 105.055C175.785 105.046 175.559 105.135 175.374 105.32L174.377 106.318ZM180.105 105.279C180.383 105.46 180.672 105.526 180.97 105.478C181.264 105.426 181.536 105.275 181.785 105.025C182.132 104.678 182.267 104.294 182.19 103.871L183.042 103.647C183.183 104.384 182.962 105.045 182.378 105.629C181.886 106.121 181.34 106.368 180.74 106.372C180.136 106.372 179.604 106.143 179.145 105.684C178.693 105.232 178.466 104.707 178.462 104.106C178.454 103.502 178.683 102.966 179.151 102.499C179.594 102.056 180.111 101.848 180.704 101.876C181.3 101.9 181.82 102.134 182.263 102.577C182.331 102.646 182.414 102.744 182.511 102.873L180.105 105.279ZM179.568 104.753L181.344 102.976C181.054 102.775 180.766 102.692 180.48 102.728C180.198 102.761 179.95 102.883 179.737 103.097C179.495 103.339 179.36 103.607 179.332 103.901C179.304 104.195 179.382 104.479 179.568 104.753ZM183.756 98.0503L184.409 97.3976L187.43 100.419L186.778 101.072L186.343 100.637C186.439 101.225 186.258 101.749 185.799 102.208C185.384 102.623 184.876 102.824 184.276 102.812C183.672 102.796 183.148 102.567 182.705 102.123C182.257 101.676 182.028 101.152 182.016 100.552C182.004 99.9519 182.205 99.4443 182.62 99.0293C183.079 98.57 183.601 98.3867 184.185 98.4794L183.756 98.0503ZM184.324 101.894C184.687 101.894 185.005 101.757 185.279 101.483C185.553 101.209 185.69 100.891 185.69 100.528C185.686 100.161 185.545 99.8391 185.267 99.5611C184.989 99.2831 184.669 99.1441 184.306 99.1441C183.939 99.1401 183.619 99.2751 183.345 99.549C183.071 99.823 182.936 100.143 182.94 100.51C182.94 100.872 183.079 101.193 183.357 101.471C183.635 101.749 183.958 101.89 184.324 101.894ZM189.756 98.2504C189.301 98.7057 188.767 98.9333 188.155 98.9333C187.547 98.9293 187.019 98.7037 186.572 98.2565C186.12 97.8053 185.895 97.2775 185.895 96.6732C185.895 96.0608 186.122 95.527 186.578 95.0717C186.872 94.7776 187.21 94.5802 187.593 94.4795C187.976 94.3787 188.346 94.3868 188.705 94.5036L188.469 95.392C188.256 95.3154 188.038 95.3074 187.817 95.3678C187.595 95.4202 187.393 95.537 187.212 95.7183C186.946 95.9842 186.813 96.2985 186.813 96.6611C186.817 97.0196 186.954 97.3339 187.224 97.6038C187.494 97.8737 187.808 98.0107 188.167 98.0148C188.53 98.0148 188.844 97.8818 189.11 97.6159C189.287 97.4386 189.404 97.2372 189.46 97.0116C189.521 96.7819 189.517 96.5603 189.448 96.3468L190.331 96.1051C190.443 96.4757 190.449 96.8524 190.349 97.2352C190.248 97.6179 190.051 97.9563 189.756 98.2504ZM190.059 91.5904C190.405 91.2439 190.796 91.0747 191.231 91.0828C191.666 91.0908 192.077 91.2883 192.464 91.675L194.319 93.5303L193.667 94.183L191.878 92.3942C191.652 92.1686 191.419 92.0557 191.177 92.0557C190.935 92.0557 190.71 92.1605 190.5 92.37C190.27 92.5996 190.158 92.8575 190.162 93.1435C190.162 93.4255 190.309 93.7136 190.603 94.0077L192.222 95.6273L191.57 96.28L187.339 92.0497L187.992 91.397L189.588 92.9924C189.475 92.4848 189.632 92.0175 190.059 91.5904Z" fill="#8896A6"/>
<rect opacity="0.2" x="225.617" y="47.2388" width="38.4589" height="16.0245" rx="1.60245" transform="rotate(-45 225.617 47.2388)" fill="#2FE6C8"/>
<path d="M244.401 42.324L243.993 41.9161L243.97 39.6816C243.97 39.1437 243.872 38.7766 243.676 38.5802C243.522 38.4261 243.355 38.3536 243.177 38.3626C242.999 38.3657 242.839 38.4382 242.697 38.5802C242.431 38.8461 242.366 39.1739 242.502 39.5637L241.804 39.745C241.692 39.4338 241.672 39.1332 241.745 38.8431C241.817 38.553 241.964 38.2977 242.184 38.0771C242.462 37.7991 242.789 37.648 243.163 37.6239C243.538 37.5997 243.877 37.7387 244.179 38.0408C244.502 38.3642 244.667 38.8884 244.673 39.6136L244.673 41.0458L245.987 39.7314L246.49 40.2345L244.401 42.324ZM244.245 36.1348L244.698 35.6816L247.871 38.8543L247.349 39.3755L244.734 36.7603L244.276 37.5807L243.705 37.2634L244.245 36.1348ZM248.895 37.739C248.895 37.8719 248.848 37.9852 248.755 38.0789C248.661 38.1726 248.548 38.2194 248.415 38.2194C248.282 38.2194 248.168 38.1726 248.075 38.0789C247.981 37.9852 247.933 37.8734 247.93 37.7435C247.93 37.6106 247.978 37.4957 248.075 37.399C248.168 37.3054 248.282 37.2585 248.415 37.2585C248.548 37.2585 248.661 37.3054 248.755 37.399C248.848 37.4927 248.895 37.606 248.895 37.739ZM250.68 33.9323L251.165 34.4172L250.803 34.7798L251.374 35.3509L250.848 35.8767L250.277 35.3056L248.718 36.8648L248.233 36.3798L247.209 33.1708L247.775 32.6043L248.799 35.8132L249.792 34.8206L248.967 33.9957L249.493 33.47L250.318 34.2949L250.68 33.9323ZM251.003 31.7419C251.003 32.0199 250.898 32.2646 250.686 32.4761C250.475 32.6876 250.228 32.7949 249.947 32.7979C249.663 32.7979 249.42 32.6967 249.218 32.4943C249.015 32.2918 248.916 32.0501 248.919 31.7691C248.919 31.485 249.024 31.2373 249.236 31.0257C249.447 30.8142 249.692 30.7085 249.97 30.7085C250.251 30.7055 250.494 30.8067 250.7 31.0122C250.902 31.2146 251.003 31.4578 251.003 31.7419ZM250.283 32.0818C250.38 31.9851 250.426 31.8748 250.423 31.7509C250.42 31.6271 250.373 31.5198 250.283 31.4291C250.189 31.3355 250.08 31.2871 249.956 31.2841C249.833 31.2811 249.722 31.3279 249.626 31.4246C249.532 31.5183 249.487 31.6271 249.49 31.7509C249.493 31.8748 249.541 31.9836 249.635 32.0773C249.725 32.1679 249.833 32.2148 249.956 32.2178C250.08 32.2208 250.189 32.1755 250.283 32.0818ZM251.525 34.2664L251.289 29.8519L251.674 29.7476L251.914 34.1667L251.525 34.2664ZM253.972 32.8614C253.761 33.0729 253.514 33.1802 253.233 33.1832C252.949 33.1832 252.706 33.082 252.504 32.8795C252.301 32.6771 252.202 32.4353 252.205 32.1543C252.205 31.8703 252.31 31.6225 252.522 31.411C252.73 31.2025 252.977 31.0983 253.261 31.0983C253.542 31.0952 253.783 31.195 253.986 31.3974C254.188 31.5999 254.289 31.8431 254.289 32.1271C254.286 32.4081 254.181 32.6529 253.972 32.8614ZM253.569 32.4671C253.666 32.3704 253.712 32.2601 253.709 32.1362C253.706 32.0123 253.659 31.905 253.569 31.8144C253.475 31.7207 253.366 31.6724 253.242 31.6694C253.119 31.6663 253.008 31.7132 252.912 31.8099C252.818 31.9035 252.773 32.0123 252.776 32.1362C252.779 32.2601 252.827 32.3689 252.921 32.4625C253.011 32.5532 253.119 32.6 253.242 32.603C253.366 32.6061 253.475 32.5607 253.569 32.4671Z" fill="#2FE6C8"/>
<path d="M235.299 45.4883C235.192 45.0911 235.556 44.7277 235.953 44.8341L239.528 45.7919C239.925 45.8983 240.058 46.3948 239.767 46.6855L237.15 49.3023C236.859 49.5931 236.363 49.4601 236.257 49.0629L235.299 45.4883Z" fill="#2FE6C8"/>
<defs>
<filter id="filter0_f_0_497" x="0.233021" y="128.297" width="252.905" height="252.905" filterUnits="userSpaceOnUse" color-interpolation-filters="sRGB">
<feFlood flood-opacity="0" result="BackgroundImageFix"/>
<feBlend mode="normal" in="SourceGraphic" in2="BackgroundImageFix" result="shape"/>
<feGaussianBlur stdDeviation="19.7636" result="effect1_foregroundBlur_0_497"/>
</filter>
<filter id="filter1_f_0_497" x="127.582" y="0.948643" width="252.905" height="252.905" filterUnits="userSpaceOnUse" color-interpolation-filters="sRGB">
<feFlood flood-opacity="0" result="BackgroundImageFix"/>
<feBlend mode="normal" in="SourceGraphic" in2="BackgroundImageFix" result="shape"/>
<feGaussianBlur stdDeviation="19.7636" result="effect1_foregroundBlur_0_497"/>
</filter>
</defs>
</svg>
