<svg width="712" height="866" viewBox="0 0 712 866" fill="none" xmlns="http://www.w3.org/2000/svg">
<g opacity="0.2" filter="url(#filter0_f_0_475)">
<rect x="67.0923" y="444.111" width="315.646" height="502.38" rx="9.47887" transform="rotate(-45 67.0923 444.111)" fill="#6D6B7C"/>
</g>
<rect x="46.9846" y="424.003" width="344.083" height="363.989" rx="9.47887" transform="rotate(-45 46.9846 424.003)" fill="white"/>
<rect x="105.297" y="455.505" width="306.167" height="279.627" rx="9.47887" transform="rotate(-45 105.297 455.505)" fill="#F5F5F5"/>
<path d="M274.345 584.981L259.251 600.076C256.659 602.667 256.659 606.868 259.251 609.459L283.585 633.794C286.177 636.385 290.378 636.385 292.969 633.794L500.078 426.685C502.67 424.094 502.67 419.892 500.078 417.301L423.275 340.498C422.599 339.822 421.784 339.299 420.887 338.967L328.732 304.855C323.342 302.86 318.137 308.194 320.264 313.533L359.13 411.112C360.111 413.575 359.532 416.385 357.658 418.26L342.034 433.883C340.888 435.029 339.363 435.716 337.745 435.815L334.058 436.039C329.616 436.309 326.694 440.789 328.237 444.963L335.584 464.837C336.224 466.568 335.798 468.514 334.493 469.819C333.101 471.211 330.993 471.594 329.2 470.782L267.963 443.045C265.446 441.906 262.487 442.444 260.533 444.398L257.96 446.971C256.085 448.846 253.275 449.425 250.813 448.444L249.458 447.904C247.352 447.065 244.948 447.56 243.345 449.164C241.711 450.798 241.23 453.26 242.131 455.388L266.332 512.601C267.385 515.089 266.823 517.967 264.913 519.878L256.305 528.486C254.288 530.503 253.786 533.584 255.058 536.138L275.592 577.329C276.865 579.882 276.363 582.964 274.345 584.981Z" fill="url(#paint0_linear_0_475)"/>
<path d="M256.105 603.633L275.589 584.148C277.614 582.124 278.112 579.028 276.823 576.471L256.128 535.392C254.84 532.834 255.338 529.739 257.362 527.715L265.751 519.326C267.67 517.407 268.227 514.514 267.157 512.02L242.675 454.923C241.776 452.827 242.244 450.396 243.856 448.783V448.783C245.439 447.201 247.813 446.718 249.888 447.557L251.255 448.109C253.724 449.107 256.55 448.533 258.434 446.65L260.863 444.22C262.825 442.258 265.799 441.724 268.321 442.88L329.442 470.907C331.207 471.716 333.289 471.342 334.661 469.97V469.97C335.95 468.681 336.366 466.758 335.725 465.053L328.308 445.317C326.731 441.119 329.685 436.598 334.163 436.357L337.616 436.171C339.25 436.083 340.794 435.395 341.951 434.238L357.285 418.903C359.168 417.02 359.743 414.194 358.745 411.725L319.493 314.623C317.327 309.264 322.571 303.891 327.981 305.926L421.032 340.936" stroke="#4F46BA" stroke-width="2.84366" stroke-linecap="round" stroke-linejoin="round"/>
<path d="M93.8595 430.44L92.1618 432.138L87.7863 430.976L86.5899 432.172L89.3588 434.941L87.7863 436.514L79.8103 428.538L83.0007 425.347C83.7375 424.61 84.6225 424.242 85.6556 424.242C86.6887 424.242 87.5699 424.606 88.2991 425.336C88.7928 425.829 89.1119 426.43 89.2562 427.136C89.393 427.835 89.336 428.522 89.0853 429.198L93.8595 430.44ZM84.4706 426.817L82.8526 428.435L85.2112 430.794L86.8292 429.176C87.1255 428.879 87.266 428.511 87.2508 428.07C87.228 427.622 87.0533 427.235 86.7267 426.908C86.4 426.582 86.0164 426.411 85.5758 426.395C85.1353 426.38 84.7668 426.521 84.4706 426.817ZM97.7207 422.09L93.425 426.386C94.329 426.91 95.2216 426.731 96.1027 425.85C96.6648 425.288 96.9003 424.673 96.8092 424.004L98.6779 423.503C98.9285 424.878 98.5069 426.112 97.4131 427.206C96.4711 428.148 95.4305 428.619 94.291 428.619C93.1516 428.619 92.1489 428.186 91.2829 427.32C90.4321 426.469 89.9991 425.474 89.9839 424.335C89.9612 423.203 90.3941 422.192 91.2829 421.304C92.1261 420.46 93.1022 420.062 94.2113 420.107C95.3355 420.138 96.323 420.578 97.1738 421.429C97.3333 421.588 97.5156 421.809 97.7207 422.09ZM92.2628 425.269L95.1684 422.363C94.7126 422.075 94.2568 421.961 93.8011 422.021C93.3529 422.075 92.9541 422.276 92.6047 422.625C92.2096 423.02 91.9856 423.45 91.9324 423.913C91.8716 424.369 91.9818 424.821 92.2628 425.269ZM103.875 420.744C103.017 421.602 102.01 422.031 100.856 422.031C99.7088 422.024 98.7099 421.594 97.8591 420.744C97.0084 419.893 96.5792 418.894 96.5716 417.747C96.5716 416.592 97.0008 415.586 97.8591 414.727C98.4137 414.173 99.0518 413.801 99.7734 413.611C100.495 413.421 101.198 413.432 101.881 413.645L101.357 415.65C101.008 415.529 100.647 415.517 100.275 415.616C99.9101 415.707 99.5835 415.897 99.2948 416.186C98.8543 416.626 98.6378 417.139 98.6454 417.724C98.6454 418.301 98.8732 418.818 99.329 419.274C99.7696 419.714 100.286 419.942 100.879 419.957C101.456 419.957 101.965 419.737 102.406 419.297C102.702 419 102.899 418.674 102.998 418.317C103.097 417.944 103.085 417.584 102.964 417.234L104.969 416.687C105.174 417.394 105.178 418.112 104.981 418.841C104.791 419.562 104.422 420.197 103.875 420.744ZM110.272 409.538L105.977 413.834C106.881 414.358 107.773 414.18 108.654 413.298C109.216 412.736 109.452 412.121 109.361 411.452L111.229 410.951C111.48 412.326 111.059 413.56 109.965 414.654C109.023 415.596 107.982 416.067 106.843 416.067C105.703 416.067 104.7 415.634 103.835 414.768C102.984 413.917 102.551 412.922 102.536 411.783C102.513 410.651 102.946 409.641 103.835 408.752C104.678 407.909 105.654 407.51 106.763 407.556C107.887 407.586 108.875 408.027 109.725 408.877C109.885 409.037 110.067 409.257 110.272 409.538ZM104.814 412.717L107.72 409.812C107.264 409.523 106.808 409.409 106.353 409.47C105.904 409.523 105.506 409.724 105.156 410.074C104.761 410.469 104.537 410.898 104.484 411.361C104.423 411.817 104.533 412.269 104.814 412.717ZM110.911 401.675C111.542 401.045 112.263 400.741 113.076 400.764C113.912 400.779 114.694 401.151 115.423 401.881L118.921 405.379L117.451 406.849L114.136 403.533C113.763 403.161 113.372 402.974 112.962 402.974C112.559 402.967 112.183 403.138 111.834 403.487C111.447 403.875 111.26 404.304 111.276 404.775C111.291 405.231 111.53 405.69 111.994 406.153L115.07 409.23L113.6 410.7L107.903 405.003L109.373 403.533L110.011 404.171C109.829 403.29 110.129 402.458 110.911 401.675ZM117.738 395.168L119.151 396.581L117.863 397.868L120.233 400.238C120.431 400.436 120.625 400.531 120.814 400.523C121.004 400.515 121.202 400.424 121.407 400.249C121.604 400.067 121.836 399.828 122.102 399.532L123.435 400.865C122.554 401.974 121.753 402.593 121.031 402.722C120.309 402.836 119.553 402.498 118.763 401.708L116.393 399.338L115.402 400.329L113.989 398.916L114.981 397.925L113.83 396.774L114.855 394.86L116.45 396.455L117.738 395.168ZM119.501 388.846L122.475 385.872C123.235 385.113 124.139 384.725 125.187 384.71C126.228 384.703 127.124 385.075 127.876 385.827C128.628 386.579 129.001 387.475 128.993 388.516C128.978 389.564 128.59 390.468 127.831 391.228L126.429 392.629L129.05 395.25L127.477 396.822L119.501 388.846ZM124.959 391.159L126.361 389.758C126.695 389.424 126.858 389.033 126.851 388.584C126.836 388.129 126.657 387.73 126.315 387.388C125.966 387.038 125.567 386.86 125.119 386.852C124.671 386.845 124.279 387.008 123.945 387.342L122.544 388.744L124.959 391.159ZM129.78 383.125L130.76 384.105C130.532 383.619 130.483 383.129 130.612 382.635C130.734 382.134 130.996 381.682 131.398 381.279L133.039 382.92C132.53 383.308 132.219 383.801 132.105 384.401C131.991 384.986 132.207 385.552 132.754 386.099L135.477 388.822L134.008 390.292L128.31 384.595L129.78 383.125ZM142.005 380.882C142.005 382.036 141.58 383.039 140.729 383.89C139.878 384.741 138.876 385.166 137.721 385.166C136.566 385.166 135.564 384.741 134.713 383.89C133.87 383.047 133.448 382.048 133.448 380.893C133.448 379.723 133.87 378.717 134.713 377.874C135.556 377.031 136.562 376.609 137.732 376.609C138.902 376.609 139.905 377.027 140.74 377.862C141.584 378.705 142.005 379.712 142.005 380.882ZM137.744 383.115C138.336 383.115 138.853 382.895 139.293 382.454C139.734 382.014 139.954 381.497 139.954 380.905C139.954 380.312 139.726 379.788 139.271 379.332C138.815 378.876 138.291 378.649 137.698 378.649C137.106 378.649 136.589 378.869 136.149 379.309C135.708 379.75 135.488 380.267 135.488 380.859C135.503 381.452 135.735 381.972 136.183 382.42C136.631 382.868 137.151 383.1 137.744 383.115ZM143.917 370.333L140.965 367.382L142.435 365.912L150.411 373.889L148.942 375.358L148.269 374.686C148.391 375.674 148.053 376.566 147.255 377.364C146.488 378.131 145.542 378.499 144.418 378.469C143.294 378.423 142.31 377.979 141.467 377.136C140.631 376.3 140.191 375.32 140.145 374.196C140.107 373.064 140.472 372.115 141.239 371.348C142.037 370.55 142.929 370.212 143.917 370.333ZM144.543 376.384C145.151 376.369 145.679 376.137 146.127 375.689C146.583 375.233 146.811 374.709 146.811 374.116C146.803 373.516 146.564 372.981 146.093 372.51C145.622 372.039 145.09 371.803 144.498 371.803C143.898 371.796 143.37 372.02 142.914 372.476C142.458 372.931 142.23 373.463 142.23 374.071C142.23 374.663 142.466 375.195 142.937 375.666C143.408 376.137 143.943 376.376 144.543 376.384ZM152.895 366.163L149.819 363.087L151.289 361.617L156.986 367.314L155.516 368.784L154.878 368.146C155.06 369.027 154.76 369.859 153.978 370.641C153.355 371.264 152.629 371.572 151.801 371.564C150.973 371.542 150.195 371.166 149.465 370.436L145.967 366.938L147.437 365.468L150.753 368.784C151.125 369.156 151.513 369.346 151.915 369.354C152.325 369.354 152.705 369.179 153.055 368.83C153.442 368.442 153.628 368.021 153.613 367.565C153.598 367.094 153.358 366.627 152.895 366.163ZM161.203 363.416C160.345 364.274 159.338 364.703 158.184 364.703C157.037 364.696 156.038 364.266 155.187 363.416C154.336 362.565 153.907 361.566 153.9 360.419C153.9 359.264 154.329 358.258 155.187 357.399C155.742 356.845 156.38 356.473 157.101 356.283C157.823 356.093 158.526 356.104 159.209 356.317L158.685 358.322C158.336 358.201 157.975 358.189 157.603 358.288C157.238 358.379 156.911 358.569 156.623 358.858C156.182 359.299 155.966 359.811 155.973 360.396C155.973 360.973 156.201 361.49 156.657 361.946C157.098 362.386 157.614 362.614 158.207 362.629C158.784 362.629 159.293 362.409 159.733 361.969C160.03 361.672 160.227 361.346 160.326 360.989C160.425 360.616 160.413 360.256 160.292 359.906L162.297 359.359C162.502 360.066 162.506 360.784 162.309 361.513C162.119 362.234 161.75 362.869 161.203 363.416ZM161.958 350.948L163.371 352.361L162.083 353.648L164.453 356.018C164.651 356.216 164.844 356.311 165.034 356.303C165.224 356.295 165.422 356.204 165.627 356.03C165.824 355.847 166.056 355.608 166.322 355.312L167.655 356.645C166.774 357.754 165.973 358.373 165.251 358.502C164.529 358.616 163.773 358.278 162.983 357.488L160.613 355.118L159.622 356.109L158.209 354.696L159.2 353.705L158.05 352.554L159.075 350.64L160.67 352.235L161.958 350.948Z" fill="black"/>
<rect x="221.251" y="277.217" width="97.6323" height="27.4887" rx="4.26549" transform="rotate(-45 221.251 277.217)" fill="white" stroke="#8896A6" stroke-width="0.947887"/>
<path d="M285.596 234.99L285.596 228.288M285.596 228.288L282.915 230.969M285.596 228.288L288.277 230.969" stroke="#8896A6" stroke-width="0.947887"/>
<path d="M244.204 276.912L246.114 275.002L246.852 275.739L244.171 278.42L239.479 273.728L240.25 272.957L244.204 276.912ZM244.072 270.542C244.072 270.721 244.01 270.873 243.885 270.998C243.76 271.123 243.606 271.188 243.422 271.192C243.239 271.188 243.085 271.123 242.96 270.998C242.835 270.873 242.772 270.721 242.772 270.542C242.768 270.359 242.83 270.202 242.96 270.073C243.089 269.943 243.246 269.881 243.429 269.885C243.608 269.885 243.76 269.948 243.885 270.073C244.01 270.198 244.072 270.354 244.072 270.542ZM247.377 275.214L244.026 271.862L244.749 271.139L248.101 274.49L247.377 275.214ZM247.862 268.026L248.653 267.235L250.697 271.893L249.859 272.731L245.201 270.687L245.992 269.896L249.477 271.505L247.862 268.026ZM251.534 268.322C251.842 268.523 252.162 268.597 252.493 268.543C252.819 268.485 253.12 268.317 253.397 268.04C253.782 267.656 253.931 267.229 253.847 266.76L254.792 266.512C254.948 267.33 254.702 268.063 254.054 268.711C253.509 269.256 252.904 269.53 252.238 269.535C251.568 269.535 250.978 269.28 250.468 268.771C249.968 268.27 249.716 267.687 249.711 267.021C249.702 266.351 249.957 265.757 250.475 265.239C250.967 264.747 251.541 264.517 252.198 264.548C252.859 264.575 253.435 264.834 253.927 265.326C254.003 265.402 254.095 265.511 254.202 265.654L251.534 268.322ZM250.938 267.739L252.908 265.768C252.586 265.545 252.267 265.453 251.95 265.493C251.637 265.529 251.362 265.665 251.125 265.902C250.857 266.17 250.708 266.467 250.676 266.794C250.645 267.12 250.732 267.435 250.938 267.739ZM254.993 258.214C255.435 257.772 255.951 257.551 256.541 257.551C257.135 257.546 257.652 257.763 258.089 258.201C258.523 258.634 258.74 259.15 258.74 259.749C258.74 260.339 258.518 260.855 258.076 261.297L257.118 262.256L258.726 263.864L257.955 264.635L253.264 259.943L254.993 258.214ZM257.352 260.573C257.58 260.345 257.692 260.082 257.687 259.782C257.678 259.479 257.556 259.208 257.319 258.971C257.082 258.735 256.814 258.614 256.514 258.61C256.211 258.601 255.945 258.71 255.717 258.938L254.758 259.896L256.394 261.532L257.352 260.573ZM259.732 257.282C259.5 256.683 259.636 256.131 260.141 255.626L260.925 256.411C260.63 256.67 260.456 256.978 260.402 257.336C260.344 257.689 260.487 258.037 260.831 258.381L262.52 260.07L261.797 260.794L258.445 257.443L259.169 256.719L259.732 257.282ZM263.133 256.723C263.441 256.924 263.761 256.998 264.091 256.944C264.417 256.886 264.719 256.719 264.996 256.442C265.38 256.057 265.53 255.631 265.445 255.161L266.39 254.913C266.547 255.731 266.301 256.464 265.653 257.112C265.108 257.657 264.502 257.932 263.837 257.936C263.166 257.936 262.576 257.682 262.067 257.172C261.567 256.672 261.314 256.089 261.31 255.423C261.301 254.753 261.555 254.158 262.074 253.64C262.565 253.148 263.139 252.918 263.796 252.95C264.458 252.976 265.034 253.236 265.526 253.727C265.602 253.803 265.693 253.913 265.8 254.056L263.133 256.723ZM262.536 256.14L264.507 254.169C264.185 253.946 263.866 253.854 263.548 253.895C263.236 253.93 262.961 254.067 262.724 254.304C262.456 254.572 262.306 254.869 262.275 255.195C262.244 255.521 262.331 255.836 262.536 256.14ZM266.621 249.267L267.412 248.476L269.457 253.134L268.619 253.972L263.961 251.927L264.751 251.137L268.237 252.745L266.621 249.267ZM267.918 246.697C267.918 246.876 267.855 247.028 267.73 247.153C267.605 247.278 267.451 247.343 267.268 247.347C267.084 247.343 266.93 247.278 266.805 247.153C266.68 247.028 266.617 246.876 266.617 246.697C266.613 246.514 266.675 246.357 266.805 246.228C266.935 246.098 267.091 246.036 267.274 246.04C267.453 246.04 267.605 246.103 267.73 246.228C267.855 246.353 267.918 246.509 267.918 246.697ZM271.222 251.369L267.871 248.017L268.595 247.293L271.946 250.645L271.222 251.369ZM271.989 247.867C272.297 248.068 272.617 248.142 272.947 248.088C273.273 248.03 273.575 247.863 273.852 247.586C274.236 247.201 274.386 246.775 274.301 246.305L275.246 246.057C275.403 246.875 275.157 247.608 274.509 248.256C273.964 248.801 273.358 249.076 272.693 249.08C272.022 249.08 271.432 248.826 270.923 248.316C270.423 247.816 270.17 247.233 270.166 246.567C270.157 245.897 270.411 245.302 270.93 244.784C271.421 244.292 271.996 244.062 272.652 244.094C273.314 244.12 273.89 244.38 274.382 244.871C274.458 244.947 274.549 245.057 274.656 245.2L271.989 247.867ZM271.392 247.284L273.363 245.313C273.041 245.09 272.722 244.998 272.404 245.039C272.092 245.074 271.817 245.211 271.58 245.448C271.312 245.716 271.162 246.013 271.131 246.339C271.1 246.665 271.187 246.98 271.392 247.284ZM277.066 238.822L277.83 238.058L280.129 242.462L279.419 243.172L276.463 241.61L278.018 244.573L277.307 245.283L272.904 242.984L273.668 242.22L276.63 243.882L275.022 240.866L275.712 240.176L278.722 241.791L277.066 238.822Z" fill="#8896A6"/>
<g filter="url(#filter1_d_0_475)">
<rect x="211.231" y="207.836" width="132.704" height="104.268" transform="rotate(-45 211.231 207.836)" fill="white"/>
</g>
<path d="M245.662 226.412L247.576 222.407L249.507 220.477L260.767 231.737L258.547 233.957L249.635 225.045L248.107 227.764L245.662 226.412ZM269.723 222.782L262.194 230.31L260.537 228.653L260.425 220.851C260.371 219.082 260.049 217.902 259.46 217.312C259.02 216.873 258.527 216.658 257.98 216.669C257.443 216.669 256.961 216.883 256.532 217.312C255.674 218.17 255.486 219.237 255.969 220.513L253.009 221.286C252.591 220.181 252.505 219.098 252.752 218.036C252.998 216.953 253.529 216.004 254.344 215.189C255.363 214.17 256.559 213.618 257.931 213.532C259.293 213.435 260.516 213.929 261.599 215.012C262.768 216.181 263.352 217.999 263.352 220.465L263.352 224.873L267.583 220.642L269.723 222.782ZM278.107 214.397L270.579 221.925L268.922 220.268L268.81 212.466C268.756 210.697 268.434 209.517 267.845 208.927C267.405 208.488 266.912 208.273 266.365 208.284C265.828 208.284 265.346 208.498 264.917 208.927C264.059 209.785 263.871 210.852 264.354 212.128L261.394 212.901C260.976 211.796 260.89 210.713 261.137 209.651C261.383 208.568 261.914 207.619 262.729 206.804C263.748 205.785 264.944 205.233 266.316 205.147C267.678 205.051 268.901 205.544 269.984 206.627C271.153 207.796 271.737 209.614 271.737 212.08L271.737 216.488L275.968 212.257L278.107 214.397ZM277.742 210.323L279.994 208.071L283.259 213.749L281.57 215.438L277.742 210.323ZM278.664 191.32L279.822 197.465C281.023 196.328 282.353 195.76 283.811 195.76C285.27 195.76 286.557 196.317 287.672 197.433C288.819 198.58 289.382 199.905 289.361 201.406C289.329 202.897 288.712 204.242 287.511 205.444C286.31 206.645 284.964 207.261 283.473 207.293C282.004 207.326 280.685 206.757 279.516 205.588C278.669 204.741 278.133 203.765 277.908 202.661L276.122 193.861L278.664 191.32ZM285.468 199.636C284.932 199.1 284.321 198.843 283.634 198.864C282.937 198.875 282.315 199.154 281.768 199.701C281.221 200.248 280.937 200.864 280.916 201.551C280.905 202.226 281.173 202.838 281.72 203.384C282.267 203.931 282.884 204.205 283.57 204.205C284.256 204.183 284.873 203.899 285.42 203.352C285.967 202.805 286.251 202.189 286.272 201.502C286.283 200.805 286.015 200.183 285.468 199.636ZM289.779 183.872L290.406 188.714C291.414 188.157 292.433 187.932 293.462 188.039C294.503 188.135 295.414 188.575 296.197 189.358C297.355 190.516 297.87 191.814 297.741 193.251C297.634 194.666 297.012 195.942 295.875 197.079C294.985 197.969 293.993 198.554 292.899 198.833C291.795 199.101 290.706 199.01 289.634 198.559L290.438 195.567C291.575 196.168 292.663 195.948 293.704 194.908C294.272 194.339 294.578 193.765 294.621 193.186C294.663 192.586 294.449 192.05 293.977 191.578C293.516 191.117 292.985 190.907 292.385 190.95C291.795 190.983 291.216 191.283 290.647 191.851L290.165 192.334L288.025 191.899L287.35 186.784L282.942 191.192L280.867 189.117L287.945 182.039L289.779 183.872ZM291.096 183.134L288.973 181.01L296.244 173.739L298.126 175.622L303.692 188.812L301.343 191.161L295.906 178.324L291.096 183.134Z" fill="black"/>
<path d="M234.203 208.599L237.376 211.772L236.855 212.293L234.593 210.032L235.223 212.592L235.16 212.656L232.594 212.021L234.86 214.288L234.339 214.809L231.167 211.636L231.729 211.074L234.271 211.704L233.646 209.157L234.203 208.599ZM237.551 207.065L238.04 206.575L240.306 208.842L239.817 209.331L239.491 209.005C239.563 209.446 239.427 209.839 239.083 210.183C238.772 210.494 238.391 210.645 237.941 210.636C237.487 210.624 237.095 210.452 236.762 210.12C236.427 209.784 236.254 209.392 236.245 208.941C236.236 208.491 236.387 208.11 236.699 207.799C237.043 207.455 237.434 207.317 237.873 207.387L237.551 207.065ZM237.977 209.947C238.249 209.947 238.487 209.845 238.693 209.639C238.898 209.434 239.001 209.195 239.001 208.923C238.998 208.648 238.892 208.406 238.684 208.198C238.475 207.989 238.235 207.885 237.963 207.885C237.688 207.882 237.448 207.983 237.243 208.189C237.037 208.394 236.936 208.635 236.939 208.91C236.939 209.181 237.043 209.422 237.252 209.63C237.46 209.839 237.702 209.944 237.977 209.947ZM239.526 205.851C239.369 205.446 239.461 205.073 239.803 204.731L240.333 205.261C240.134 205.437 240.016 205.645 239.98 205.887C239.94 206.126 240.037 206.361 240.27 206.594L241.412 207.736L240.922 208.226L238.656 205.959L239.146 205.47L239.526 205.851ZM243.539 205.727C243.198 206.068 242.797 206.239 242.338 206.239C241.882 206.236 241.486 206.067 241.151 205.731C240.812 205.393 240.643 204.997 240.643 204.544C240.643 204.084 240.814 203.684 241.155 203.343C241.376 203.122 241.63 202.974 241.917 202.898C242.204 202.823 242.482 202.829 242.751 202.917L242.574 203.583C242.414 203.525 242.25 203.519 242.084 203.565C241.918 203.604 241.767 203.692 241.631 203.828C241.432 204.027 241.332 204.263 241.332 204.535C241.335 204.804 241.438 205.039 241.64 205.242C241.843 205.444 242.078 205.547 242.347 205.55C242.619 205.55 242.855 205.45 243.054 205.251C243.187 205.118 243.275 204.967 243.317 204.798C243.362 204.625 243.359 204.459 243.308 204.299L243.97 204.118C244.054 204.396 244.059 204.678 243.983 204.965C243.908 205.252 243.76 205.506 243.539 205.727ZM243.766 200.732C244.026 200.472 244.319 200.345 244.645 200.351C244.972 200.357 245.28 200.505 245.57 200.795L246.961 202.187L246.472 202.676L245.13 201.334C244.961 201.165 244.786 201.081 244.605 201.081C244.423 201.081 244.254 201.159 244.097 201.316C243.925 201.489 243.84 201.682 243.843 201.897C243.843 202.108 243.953 202.324 244.174 202.545L245.389 203.759L244.899 204.249L241.727 201.076L242.216 200.587L243.413 201.783C243.328 201.402 243.446 201.052 243.766 200.732ZM248.567 200.581L248.159 200.173L248.137 197.938C248.137 197.401 248.038 197.033 247.842 196.837C247.688 196.683 247.522 196.61 247.343 196.619C247.165 196.622 247.005 196.695 246.863 196.837C246.597 197.103 246.532 197.431 246.668 197.821L245.97 198.002C245.858 197.691 245.839 197.39 245.911 197.1C245.984 196.81 246.13 196.554 246.351 196.334C246.629 196.056 246.955 195.905 247.33 195.881C247.705 195.857 248.043 195.996 248.345 196.298C248.668 196.621 248.833 197.145 248.839 197.87L248.839 199.303L250.154 197.988L250.657 198.491L248.567 200.581ZM252.3 194.736L252.785 195.221L252.423 195.583L252.994 196.154L252.468 196.68L251.897 196.109L250.338 197.668L249.853 197.183L248.829 193.974L249.395 193.408L250.419 196.617L251.412 195.624L250.587 194.799L251.113 194.273L251.938 195.098L252.3 194.736ZM253.901 194.16L254.762 195.655L254.354 196.063L253.357 194.703L253.901 194.16ZM257.856 190.513C257.937 191.029 257.782 191.484 257.389 191.877C256.996 192.27 256.54 192.427 256.02 192.348C255.504 192.267 254.996 191.977 254.497 191.478C253.999 190.979 253.709 190.472 253.627 189.955C253.549 189.435 253.706 188.979 254.099 188.586C254.491 188.193 254.946 188.038 255.463 188.119C255.982 188.198 256.492 188.487 256.99 188.985C257.489 189.484 257.777 189.993 257.856 190.513ZM256.881 191.369C257.117 191.134 257.199 190.856 257.126 190.535C257.054 190.215 256.835 189.872 256.469 189.506C256.103 189.141 255.76 188.922 255.44 188.849C255.12 188.777 254.842 188.858 254.606 189.094C254.373 189.327 254.292 189.605 254.361 189.928C254.434 190.248 254.653 190.591 255.019 190.957C255.384 191.322 255.727 191.541 256.047 191.614C256.371 191.683 256.649 191.602 256.881 191.369ZM258.877 190.271L258.469 189.863L258.446 187.629C258.446 187.091 258.348 186.724 258.152 186.528C257.997 186.373 257.831 186.301 257.653 186.31C257.475 186.313 257.315 186.386 257.173 186.528C256.907 186.793 256.842 187.121 256.978 187.511L256.28 187.692C256.168 187.381 256.148 187.08 256.221 186.79C256.293 186.5 256.44 186.245 256.66 186.024C256.938 185.746 257.265 185.595 257.639 185.571C258.014 185.547 258.352 185.686 258.655 185.988C258.978 186.311 259.143 186.836 259.149 187.561L259.149 188.993L260.463 187.679L260.966 188.182L258.877 190.271ZM260.256 185.402C260.256 185.535 260.209 185.648 260.115 185.742C260.022 185.836 259.908 185.883 259.776 185.883C259.643 185.883 259.529 185.836 259.436 185.742C259.339 185.645 259.291 185.534 259.291 185.407C259.291 185.274 259.339 185.159 259.436 185.062C259.529 184.969 259.643 184.922 259.776 184.922C259.908 184.922 260.022 184.969 260.115 185.062C260.209 185.156 260.256 185.269 260.256 185.402ZM261.956 187.102C261.956 187.235 261.909 187.348 261.815 187.442C261.721 187.535 261.608 187.582 261.475 187.582C261.342 187.582 261.229 187.535 261.135 187.442C261.042 187.348 260.993 187.236 260.99 187.106C260.99 186.973 261.039 186.859 261.135 186.762C261.229 186.668 261.342 186.621 261.475 186.621C261.608 186.621 261.721 186.668 261.815 186.762C261.909 186.856 261.956 186.969 261.956 187.102ZM264.335 184.034C264.416 184.551 264.261 185.005 263.868 185.398C263.475 185.791 263.019 185.948 262.499 185.87C261.982 185.788 261.475 185.498 260.976 184.999C260.478 184.501 260.187 183.993 260.106 183.476C260.027 182.957 260.184 182.5 260.577 182.108C260.97 181.715 261.425 181.559 261.941 181.641C262.461 181.719 262.97 182.008 263.469 182.506C263.967 183.005 264.256 183.514 264.335 184.034ZM263.36 184.891C263.596 184.655 263.677 184.377 263.605 184.057C263.532 183.736 263.313 183.393 262.948 183.028C262.582 182.662 262.239 182.443 261.919 182.37C261.599 182.298 261.321 182.38 261.085 182.615C260.852 182.848 260.771 183.126 260.84 183.449C260.913 183.769 261.132 184.112 261.497 184.478C261.863 184.844 262.206 185.063 262.526 185.135C262.849 185.205 263.127 185.123 263.36 184.891ZM267.235 181.134C267.316 181.65 267.161 182.105 266.768 182.498C266.375 182.891 265.919 183.048 265.399 182.969C264.882 182.888 264.375 182.598 263.876 182.099C263.378 181.6 263.088 181.093 263.006 180.576C262.928 180.056 263.085 179.6 263.477 179.207C263.87 178.815 264.325 178.659 264.842 178.741C265.361 178.819 265.871 179.108 266.369 179.606C266.868 180.105 267.156 180.614 267.235 181.134ZM266.26 181.99C266.496 181.755 266.578 181.477 266.505 181.156C266.433 180.836 266.214 180.493 265.848 180.127C265.482 179.762 265.139 179.543 264.819 179.47C264.499 179.398 264.221 179.479 263.985 179.715C263.752 179.948 263.671 180.226 263.74 180.549C263.813 180.869 264.032 181.212 264.398 181.578C264.763 181.943 265.106 182.163 265.426 182.235C265.75 182.305 266.028 182.223 266.26 181.99ZM266.495 176.307C266.795 176.008 267.144 175.858 267.542 175.858C267.944 175.855 268.293 176.002 268.589 176.298C268.883 176.591 269.029 176.94 269.029 177.345C269.029 177.744 268.88 178.093 268.58 178.392L267.932 179.04L269.02 180.128L268.499 180.649L265.326 177.477L266.495 176.307ZM268.091 177.903C268.245 177.748 268.321 177.57 268.318 177.368C268.311 177.162 268.228 176.979 268.068 176.819C267.908 176.659 267.727 176.578 267.524 176.575C267.319 176.569 267.139 176.643 266.985 176.797L266.337 177.445L267.443 178.551L268.091 177.903ZM271.082 171.721L274.254 174.894L273.733 175.415L271.471 173.153L272.101 175.714L272.038 175.778L269.473 175.143L271.739 177.409L271.218 177.93L268.045 174.758L268.607 174.196L271.15 174.826L270.524 172.279L271.082 171.721Z" fill="#8896A6"/>
<rect opacity="0.2" x="268.203" y="248.722" width="49.2901" height="20.8535" rx="1.60245" transform="rotate(-45 268.203 248.722)" fill="#2FE6C8"/>
<path d="M289.138 245.824L288.535 245.221L288.502 241.916C288.502 241.121 288.356 240.578 288.066 240.288C287.838 240.06 287.592 239.953 287.329 239.966C287.065 239.97 286.828 240.078 286.618 240.288C286.225 240.681 286.129 241.166 286.33 241.742L285.298 242.01C285.132 241.55 285.103 241.105 285.211 240.676C285.318 240.247 285.535 239.87 285.861 239.544C286.272 239.133 286.754 238.909 287.308 238.873C287.863 238.838 288.363 239.043 288.81 239.49C289.288 239.968 289.531 240.743 289.54 241.816L289.54 243.934L291.484 241.99L292.228 242.734L289.138 245.824ZM288.907 236.671L289.577 236.001L294.269 240.693L293.498 241.464L289.631 237.596L288.954 238.81L288.11 238.34L288.907 236.671ZM295.785 239.044C295.785 239.24 295.715 239.408 295.577 239.546C295.438 239.685 295.271 239.754 295.074 239.754C294.877 239.754 294.71 239.685 294.571 239.546C294.433 239.408 294.361 239.243 294.357 239.05C294.357 238.854 294.428 238.684 294.571 238.541C294.71 238.402 294.877 238.333 295.074 238.333C295.271 238.333 295.438 238.402 295.577 238.541C295.715 238.679 295.785 238.847 295.785 239.044ZM298.425 233.414L299.142 234.131L298.606 234.668L299.45 235.512L298.673 236.29L297.828 235.445L295.522 237.751L294.805 237.034L293.29 232.288L294.128 231.45L295.643 236.196L297.111 234.728L295.891 233.508L296.668 232.731L297.888 233.95L298.425 233.414ZM298.902 230.175C298.902 230.586 298.746 230.948 298.433 231.261C298.12 231.574 297.756 231.732 297.341 231.737C296.921 231.737 296.561 231.587 296.261 231.288C295.962 230.988 295.815 230.631 295.819 230.215C295.819 229.795 295.975 229.429 296.288 229.116C296.601 228.803 296.963 228.647 297.374 228.647C297.79 228.642 298.149 228.792 298.453 229.096C298.753 229.395 298.902 229.755 298.902 230.175ZM297.837 230.678C297.98 230.535 298.049 230.372 298.044 230.189C298.04 230.005 297.971 229.847 297.837 229.713C297.698 229.574 297.537 229.503 297.354 229.498C297.171 229.494 297.008 229.563 296.865 229.706C296.726 229.844 296.659 230.005 296.664 230.189C296.668 230.372 296.74 230.533 296.878 230.671C297.012 230.805 297.171 230.874 297.354 230.879C297.537 230.883 297.698 230.816 297.837 230.678ZM299.673 233.908L299.325 227.38L299.894 227.226L300.25 233.761L299.673 233.908ZM303.292 231.831C302.98 232.143 302.616 232.302 302.2 232.307C301.78 232.307 301.42 232.157 301.121 231.857C300.821 231.558 300.674 231.201 300.678 230.785C300.678 230.365 300.835 229.999 301.148 229.686C301.456 229.378 301.82 229.223 302.24 229.223C302.656 229.219 303.013 229.366 303.313 229.666C303.612 229.965 303.762 230.325 303.762 230.745C303.757 231.16 303.601 231.522 303.292 231.831ZM302.696 231.248C302.839 231.105 302.908 230.941 302.904 230.758C302.899 230.575 302.83 230.416 302.696 230.282C302.557 230.144 302.397 230.072 302.213 230.068C302.03 230.063 301.867 230.133 301.724 230.276C301.586 230.414 301.519 230.575 301.523 230.758C301.527 230.941 301.599 231.102 301.737 231.241C301.872 231.375 302.03 231.444 302.213 231.449C302.397 231.453 302.557 231.386 302.696 231.248Z" fill="#2FE6C8"/>
<path d="M279.895 248.982C279.789 248.585 280.152 248.221 280.549 248.328L284.124 249.286C284.521 249.392 284.654 249.888 284.364 250.179L281.747 252.796C281.456 253.087 280.959 252.954 280.853 252.557L279.895 248.982Z" fill="#2FE6C8"/>
<defs>
<filter id="filter0_f_0_475" x="0.875" y="154.698" width="710.867" height="710.867" filterUnits="userSpaceOnUse" color-interpolation-filters="sRGB">
<feFlood flood-opacity="0" result="BackgroundImageFix"/>
<feBlend mode="normal" in="SourceGraphic" in2="BackgroundImageFix" result="shape"/>
<feGaussianBlur stdDeviation="35.0718" result="effect1_foregroundBlur_0_475"/>
</filter>
<filter id="filter1_d_0_475" x="93.693" y="0.25382" width="402.64" height="402.64" filterUnits="userSpaceOnUse" color-interpolation-filters="sRGB">
<feFlood flood-opacity="0" result="BackgroundImageFix"/>
<feColorMatrix in="SourceAlpha" type="matrix" values="0 0 0 0 0 0 0 0 0 0 0 0 0 0 0 0 0 0 127 0" result="hardAlpha"/>
<feOffset dy="3.79155"/>
<feGaussianBlur stdDeviation="58.769"/>
<feComposite in2="hardAlpha" operator="out"/>
<feColorMatrix type="matrix" values="0 0 0 0 0 0 0 0 0 0 0 0 0 0 0 0 0 0 0.1 0"/>
<feBlend mode="normal" in2="BackgroundImageFix" result="effect1_dropShadow_0_475"/>
<feBlend mode="normal" in="SourceGraphic" in2="effect1_dropShadow_0_475" result="shape"/>
</filter>
<linearGradient id="paint0_linear_0_475" x1="240.354" y1="374.07" x2="396.524" y2="530.24" gradientUnits="userSpaceOnUse">
<stop stop-color="#4F46BA" stop-opacity="0.21"/>
<stop offset="1" stop-color="white" stop-opacity="0"/>
</linearGradient>
</defs>
</svg>
